<svg xmlns="http://www.w3.org/2000/svg" xmlns:xlink="http://www.w3.org/1999/xlink" viewBox="0 0 351.99 496.25"><defs><style>.cls-1{fill:none;}.cls-2{fill:#d88228;}.cls-3{fill:#71a341;}.cls-4{fill:#d54327;}.cls-5{fill:#6f3415;}.cls-6{fill:#e6cfac;}.cls-7{fill:#e9ae21;}.cls-8{clip-path:url(#clip-path);}.cls-9{fill:#fdf391;}</style><clipPath id="clip-path"><path class="cls-1" d="M164.07,6.25h23.85a154,154,0,0,1,154,154v0a12.14,12.14,0,0,1-12.14,12.14H22.22a12.14,12.14,0,0,1-12.14-12.14v0a154,154,0,0,1,154-154Z"/></clipPath></defs><title>burger</title><g id="Layer_2" data-name="Layer 2"><g id="Layer_1-2" data-name="Layer 1"><path class="cls-2" d="M164.07,6.25h23.85a154,154,0,0,1,154,154v0a12.14,12.14,0,0,1-12.14,12.14H22.22a12.14,12.14,0,0,1-12.14-12.14v0a154,154,0,0,1,154-154Z"/><rect class="cls-2" x="8.28" y="444.15" width="331.83" height="52.1" rx="25.2"/><path class="cls-3" d="M24.18,432c-9,4.88-26.49,17.22-23.78,27.18,2.08,7.62,15.87,13.28,26.05,10.19,11.81-3.58,12.25-17,23.78-19.25,6-1.19,8.4,2,19.26,5.66,2,.68,11.48,7.42,30.36,5.06s27.76-11.48,45.52-11.85c6.18-.14,19.34-.41,29.44,7.92,5.41,4.47,5.57,7.27,14.58,9,7.45,1.41,8-5.19,20.53-11.23,3.8-1.84,7.85-6.52,19.49-6.36,19.7.26,24.66,15.05,38.27,12.14,12.51-2.67,21.29-11.51,32.05-12,11.7-.54,13.3,10.48,28,11.89,9.77.94,21.56-4.93,23.79-13.59,2.4-9.37-7.26-18.63-7.93-19.25-13-12.15-34.93-8.89-56.63-5.67-20.57,3.06-20.05,6.2-35.11,6.8-16,.64-18.31-2.86-43-4.53a266.52,266.52,0,0,0-37.38,0c-21.59,1.66-21.16,4.66-35.1,4.53-18.08-.17-19.56-5.21-41.91-6.8a165.14,165.14,0,0,0-32.84,1.14C45,424.86,35.14,426,24.18,432Z"/><rect class="cls-4" x="10.08" y="404.99" width="331.83" height="26.05" rx="9.8"/><rect class="cls-5" x="10.08" y="355.06" width="331.83" height="52.1" rx="25.2"/><path class="cls-6" d="M27.66,360.77c5.56,10.43,10.88,13.1,14.72,13.59C52,375.59,57.09,363.8,67.3,365.3c7.82,1.15,12.75,9.23,14.72,12.46,3.69,6,3.32,9.94,5.67,21.51,2.85,14.07,8,20.27,11.9,20.65,4.33.43,7-8,14.14-26.31,5.87-14.89,7.35-21.55,12.46-22.65,5.52-1.19,7.89,5.69,19.26,7.93,2.49.49,9.63,1.8,17-1.13,9.14-3.65,9.43-10.19,14.73-10.2,5.08,0,6.46,6,18.12,17,6.53,6.15,9.87,9.21,13.59,9.06,7.8-.32,15.06-10.8,19.32-19.82,5.13-10.86,5.82-10.51,5-13Z"/><rect class="cls-6" x="10.08" y="347.41" width="331.83" height="16.82" rx="7.87"/><rect class="cls-4" x="10.08" y="322.3" width="331.83" height="26.05" rx="9.8"/><path class="cls-7" d="M114.05,317.08c43,36.47,100,50.65,103.7,52.58,5.12,2.68,8.29.18,8.29.18,20.73-7.6,37.61-15.43,110.81-54.1C298.79,317.18,152.11,315.63,114.05,317.08Z"/><rect class="cls-7" x="10.08" y="302.74" width="331.83" height="19.56" rx="8.49"/><path class="cls-3" d="M327,283.28c9,4.78,25.31,14,22.71,23.94-2,7.64-1.21,21.87-11.42,18.89-11.84-3.46-17.67-7.42-29.22-9.58-6-1.12-14-3.69-24.8.13-2,.7-11.41,7.54-30.31,5.39s-9.46-.74-30.13-7c-5.92-1.8,0,0-17.93-4-6.85-1.52-19.38,10.92-28.37,12.72-7.44,1.49-21.1-.78-33.7-6.68-3.82-1.8-7.92-6.43-19.56-6.15-19.69.48-24.49,15.32-38.13,12.56C73.61,321,64.74,312.2,54,311.82c-11.7-.41-13.18,10.63-27.83,12.2-9.76,1.05-21.61-4.7-23.93-13.33-2.52-9.34,19.29-25.61,20-26.25,12.89-12.29,22.59-2.36,44.32.63,20.61,2.83,20.12,6,35.18,6.41,16.06.46,18.28-3.06,43-5a266.41,266.41,0,0,1,37.37-.41c21.61,1.42,21.21,4.42,35.15,4.14,18.07-.37,19.5-5.43,41.83-7.25a164.49,164.49,0,0,1,32.85.77C308.47,285.49,316,277.44,327,283.28Z"/><rect class="cls-5" x="10.08" y="239.6" width="331.83" height="52.1" rx="25.2"/><rect class="cls-6" x="10.08" y="231.95" width="331.83" height="16.82" rx="7.87"/><path class="cls-6" d="M33.48,240.54c-.29,3,11.88,25.57,20.67,26.33,10.25.89,13-16.08,27.36-17.23,5.27-.42,11.57-.92,17.53,3,9.59,6.26,12,19.78,12.33,21.49,1.3,7.71-.82,10.58,1.94,15a14.85,14.85,0,0,0,13.91,6.6c8.74-1.22,13.38-12.17,17-20.69,4.87-11.5-5.25,7.79,0,0,3.5-5.2,9.57-13.62,13.85-11.79,1,.42,7.74-.92,9.12,14.52,1.33,14.83,0,0,1.29,11.61.33,2.95,2.34,21,9.95,22.66,5.68,1.23,12.81-7,15.66-14.51.72-1.92,1-3.47,1.71-19.86.51-12.75.48-16,2.88-19.82,2.2-3.52,6.89-8.24,10.76-7.18,4.91,1.35,3,10.48,10.09,17.69,4.43,4.52,12.29,8.18,17.46,5.45,6.45-3.4,3.15-13.86,9.88-18.39,6.16-4.15,17.31-1.06,22.15,5.57,3.68,5,7,8,5.37,18.81-1.93,12.89,5.11,12.58,9,12.69h0s27.44-2.27,25-24.71c-1.22-11.14,3.75-23.39,6.51-30.58C94.51,226,34.15,233.67,33.48,240.54Z"/><rect class="cls-4" x="10.08" y="206.51" width="331.83" height="26.05" rx="9.8"/><rect class="cls-7" x="10.08" y="188.35" width="331.83" height="19.56" rx="8.49"/><path class="cls-7" d="M10.3,201.09c12.52,40,28.24,54.24,44.39,68.23,5.73,5,38.13-10.69,45-14,18.31-8.8,48.11-13.42,108.2-53.46C170.61,203.16,47.56,199.82,10.3,201.09Z"/><path class="cls-3" d="M327.28,170c9.1,4.65,26.93,16.53,24.48,26.55-1.88,7.68-15.52,13.7-25.77,10.87-11.9-3.27-7-11-18.58-13-6.06-1-14.05-3.48-24.8.5-2,.74-11.29,7.71-30.23,5.85s-28-10.75-45.8-10.66c-6.18,0-19.35.09-29.23,8.69-5.29,4.61-5.38,7.41-14.34,9.35-7.41,1.6-8.13-5-20.82-10.7-3.84-1.73-8-6.31-19.65-5.85-19.68.78-24.25,15.69-37.94,13.14C72,202.43,63,193.83,52.25,193.61c-11.71-.24-13,10.82-27.65,12.62-9.74,1.19-21.68-4.37-24.13-13-2.65-9.3,6.77-18.81,7.42-19.45,12.7-12.49,34.68-9.8,56.46-7.14,20.65,2.52,20.21,5.67,35.28,5.88,16.06.22,18.23-3.34,42.9-5.65a266.41,266.41,0,0,1,37.36-1c21.63,1.1,21.28,4.11,35.21,3.61,18.06-.64,19.41-5.72,41.72-7.88a165,165,0,0,1,32.86.27C306.33,163.44,316.17,164.33,327.28,170Z"/><g class="cls-8"><path class="cls-9" d="M220.21,39.85c4,0,9.82-1.5,9.27-6.69-.52-4.79-7-8-11.29-8-4.05,0-9.83,1.5-9.27,6.69.51,4.78,7,8,11.29,8Z"/><path class="cls-9" d="M212.5,114c3.8,0-2-7.37-2.63-8C207.21,103.05,203,99,198.71,99c-3.8,0,2,7.37,2.63,8,2.66,2.89,6.91,6.92,11.16,6.92Z"/><path class="cls-9" d="M113.68,110c2.39,0-2.63-6.38-3.1-7-1.56-2-6.26-9-9.35-9-2.39,0,2.63,6.39,3.11,7,1.55,2,6.25,9,9.34,9Z"/><path class="cls-9" d="M147.74,66.83c3.85,0,5.1-2,2.34-5-2.92-3.19-9-6.3-13.45-6.3-3.85,0-5.1,2-2.33,5,2.91,3.19,9,6.31,13.44,6.31Z"/><path class="cls-9" d="M159.59,35.84c4.87,0,1.27-5.6-.34-7.13a20,20,0,0,0-13.33-5.6c-4.87,0-1.27,5.61.35,7.13a19.9,19.9,0,0,0,13.32,5.6Z"/><path class="cls-9" d="M262.39,82.48c3.48,0,7.14-1.63,7.57-5.52.37-3.41-2.95-6.86-6.37-6.86s-7.14,1.63-7.57,5.52c-.37,3.41,3,6.86,6.37,6.86Z"/><path class="cls-9" d="M139.27,138.43c3.53,0,5.56-3.66,4.84-6.8-.85-3.67-4.55-5.74-8.07-5.74s-5.56,3.66-4.83,6.8c.84,3.68,4.54,5.74,8.06,5.74Z"/><path class="cls-9" d="M298,145.76c3.16,0,6.54-2,8.61-4.32,1.09-1.21,3.17-4.75-.08-4.75s-6.55,2-8.62,4.32c-1.09,1.21-3.17,4.75.09,4.75Z"/><path class="cls-9" d="M117.46,38.36c2.42,0,6.37-.7,5.89-4-.45-3-5.24-4.73-7.77-4.73s-6.38.71-5.9,4c.45,3,5.24,4.72,7.78,4.72Z"/><path class="cls-9" d="M185.64,69c2.85,0,2.87-2.08,1.1-3.65-2.44-2.15-6.35-2.85-9.48-2.85-2.86,0-2.88,2.08-1.1,3.65,2.43,2.15,6.35,2.85,9.48,2.85Z"/><path class="cls-9" d="M230.59,132.61c3.26,0,1.88-3.74.77-5.28-1.84-2.55-5.25-4.68-8.45-4.68s-1.89,3.75-.77,5.29c1.84,2.54,5.25,4.67,8.45,4.67Z"/><path class="cls-9" d="M263.7,54.1c6.72,0,1.73-13-4.44-13-6.72,0-1.73,13,4.44,13Z"/><path class="cls-9" d="M155.91,101c2.75,0,2.25-1.2.41-2.27-2.68-1.55-6.72-1.77-9.74-1.77-2.74,0-2.25,1.2-.41,2.27,2.68,1.55,6.72,1.77,9.74,1.77Z"/><path class="cls-9" d="M90.61,63.23c2.32,0,7.76-.16,9.36-2.13s-1-2-2.85-2c-2.32,0-7.76.16-9.36,2.13s1,1.95,2.85,1.95Z"/><path class="cls-9" d="M85.67,141.6c7.69,0,10.48-9.82,1.29-9.82-7.69,0-10.48,9.82-1.29,9.82Z"/><path class="cls-9" d="M169.1,153.51c8.08,0,9.58-12.49.53-12.49-8.08,0-9.58,12.49-.53,12.49Z"/><path class="cls-9" d="M312.94,102.19c2.75,0,5.76-1.73,8.1-3,.55-.3,4.9-3.47,3.75-3.47-2.75,0-5.77,1.73-8.11,3-.55.3-4.9,3.47-3.74,3.47Z"/><path class="cls-9" d="M200.53,62.35a9,9,0,0,0,8.11-5.67c1-3-.74-5.71-4-5.71a9,9,0,0,0-8.12,5.67c-1,3,.75,5.71,4,5.71Z"/><path class="cls-9" d="M192.68,31.79c2.66,0,3.34-1.39,1.61-3.44a13.87,13.87,0,0,0-9-4.2c-2.67,0-3.35,1.39-1.61,3.44a13.87,13.87,0,0,0,9,4.2Z"/><path class="cls-9" d="M238.88,79.59c1.92,0,7-.62,7-3.41S240.55,73,238.78,73s-7,.62-6.95,3.41,5.27,3.19,7,3.19Z"/><path class="cls-9" d="M216,91.56c5,0-.79-12.42-5.64-12.42s.78,12.42,5.64,12.42Z"/><path class="cls-9" d="M85.39,96.4c6.32,0,1.54-13-4.19-13-6.32,0-1.54,13,4.19,13Z"/><path class="cls-9" d="M117.26,81.67c8,0,10.72-10.76,1.53-10.76-8,0-10.72,10.76-1.53,10.76Z"/><path class="cls-9" d="M79.5,49.74c7.84,0,10.76-10.32,1.55-10.32-7.84,0-10.76,10.32-1.55,10.32Z"/><path class="cls-9" d="M280.1,156.06c1.7,0-3.63-11.56-7-11.56-1.7,0,3.63,11.56,7,11.56Z"/><path class="cls-9" d="M286.27,90.7a9.73,9.73,0,0,0,8.25-5.48c1.17-2.86-.35-5.22-3.47-5.22a9.7,9.7,0,0,0-8.24,5.48c-1.18,2.86.34,5.22,3.46,5.22Z"/><path class="cls-9" d="M291.41,62c2.83,0-.54-5.2-1.06-5.87-1.73-2.21-4.48-4.71-7.46-4.71-2.83,0,.54,5.2,1.06,5.86,1.73,2.21,4.48,4.72,7.46,4.72Z"/><path class="cls-9" d="M243.92,40.17c7.63,0,1.79-12.32-4.14-12.32-7.63,0-1.8,12.32,4.14,12.32Z"/><path class="cls-9" d="M260.34,30.16c2.33,0,7.41-1.35,7.94-4.14.59-3.07-3.69-3.27-5.66-3.27-2.33,0-7.41,1.36-7.94,4.14-.59,3.08,3.69,3.27,5.66,3.27Z"/><path class="cls-9" d="M182.54,10.64c3.28,0,7.32-1.39,8.48-4.82,1-3.06-1.53-5.82-4.63-5.82-3.28,0-7.32,1.38-8.48,4.82-1,3.06,1.54,5.82,4.63,5.82Z"/><path class="cls-9" d="M152.55,15.82c8.81,0,9.3-11.94.41-11.94s-9.29,11.94-.41,11.94Z"/><path class="cls-9" d="M98.24,20a13.75,13.75,0,0,0,8.92-3.61c1-.91,3.74-4.52.45-4.52a13.81,13.81,0,0,0-8.92,3.61c-1,.92-3.74,4.52-.45,4.52Z"/><path class="cls-9" d="M340,137c.48,0-2.29-12.62-6.06-12.62-.48,0,2.3,12.62,6.06,12.62Z"/><path class="cls-9" d="M321.58,78.35c1.67,0-3.29-3.67-3.49-3.79-2.2-1.4-5.25-3.35-8-3.35-1.66,0,3.29,3.67,3.49,3.79,2.2,1.4,5.26,3.35,8,3.35Z"/><path class="cls-9" d="M299.8,119.46c3.19,0,7.25-1.65,7.84-5.18s-2.95-5.66-6-5.66c-3.18,0-7.24,1.65-7.83,5.18s2.94,5.66,5.95,5.66Z"/><path class="cls-9" d="M27.3,93.64c2.16,0,6.21-.92,5.43-3.87s-5.89-3.65-8.21-3.65c-2.15,0-6.2.92-5.43,3.87s5.9,3.65,8.21,3.65Z"/><path class="cls-9" d="M20.83,127.35c.53,0-2.85-5.92-3.14-6.33-.87-1.26-3-5.19-4.82-5.19-.53,0,2.86,5.92,3.15,6.34.87,1.26,3,5.18,4.81,5.18Z"/><path class="cls-9" d="M45.71,117a38.46,38.46,0,0,0,9.47-1.41c.66-.17,5-1.51,2.28-1.51A38.46,38.46,0,0,0,48,115.5c-.67.17-5,1.51-2.28,1.51Z"/><path class="cls-9" d="M48.17,86.9c2.61,0,6.35-1.41,5.74-4.63s-5.29-4.51-8-4.51-6.34,1.41-5.73,4.63,5.28,4.51,8,4.51Z"/><path class="cls-9" d="M269.07,109.93c10.28,0,.41-12.92-6.12-12.92-10.28,0-.41,12.92,6.12,12.92Z"/><path class="cls-9" d="M264.63,132c2.45,0,7.74-.49,6.87-4.15-.81-3.39-7.47-4.65-10.15-4.65-2.45,0-7.74.49-6.87,4.15.81,3.39,7.47,4.65,10.15,4.65Z"/><path class="cls-9" d="M169.44,125.57c4.15,0,5.92-4.39,4.52-7.79-1.75-4.24-6.44-6.21-10.71-6.21s-5.91,4.39-4.51,7.79c1.74,4.24,6.43,6.21,10.7,6.21Z"/><path class="cls-9" d="M168.15,83.42c3,0-2.54-5.94-2.93-6.29-2.59-2.3-6.11-4.95-9.74-4.95-3,0,2.54,5.94,2.93,6.29,2.59,2.3,6.12,5,9.74,5Z"/><path class="cls-9" d="M39.73,145.77c4.25,0,8.49-4.32,8.39-8.53-.12-4.89-4.74-6.61-8.84-6.61-4.26,0-8.5,4.32-8.39,8.53.12,4.89,4.74,6.61,8.84,6.61Z"/><path class="cls-9" d="M52,59.21c3.28,0,8.53-2.29,8.32-6.21-.22-4.24-6.06-4.93-9.13-4.93-3.28,0-8.53,2.29-8.32,6.21.22,4.24,6.06,4.93,9.13,4.93Z"/></g></g></g></svg>