<?xml version="1.0" encoding="utf-8"?>
<!-- Generator: Adobe Illustrator 20.0.0, SVG Export Plug-In . SVG Version: 6.00 Build 0)  -->
<!DOCTYPE svg PUBLIC "-//W3C//DTD SVG 1.1//EN" "http://www.w3.org/Graphics/SVG/1.1/DTD/svg11.dtd">
<svg version="1.1" id="Layer_1" xmlns="http://www.w3.org/2000/svg" xmlns:xlink="http://www.w3.org/1999/xlink" x="0px" y="0px"
	 viewBox="0 0 89.8 89.8" style="enable-background:new 0 0 89.8 89.8;" xml:space="preserve">
<style type="text/css">
	.st0{fill:none;stroke:#77787B;stroke-width:1.5;stroke-miterlimit:10;}
	.st1{fill:#FFFFFF;stroke:#F1F1F2;stroke-width:0.12;stroke-miterlimit:10;}
	.st2{fill:#A6A8AB;stroke:#77787B;stroke-width:0.12;stroke-miterlimit:10;}
	.st3{fill:none;stroke:#77787B;stroke-width:0.16;stroke-miterlimit:10;}
	.st4{fill:#D0D2D3;stroke:#BBBDBF;stroke-width:0.12;stroke-miterlimit:10;}
</style>
<title>Asset 1</title>
<line class="st0" x1="43.8" y1="4.5" x2="38.9" y2="70.5"/>
<path class="st1" d="M23.8,69.3c0,0,3.8-0.7,7.1-0.9c7.9-0.7,13.9-1,24.2-1.2l7.3-0.3c0,0,3,3,3.7,4.6c-6.2,1.2-12.6,2.1-18.9,2.7
	c-7.3,0.6-14.6,0.8-21.9,0.6C24.3,73.1,23.8,69.3,23.8,69.3z"/>
<polygon class="st2" points="41.8,60.5 61,58.7 50.2,5.9 45.5,6.1 "/>
<line class="st3" x1="45.2" y1="10.6" x2="51.1" y2="10.3"/>
<line class="st3" x1="59.1" y1="48.9" x2="43.5" y2="49.7"/>
<line class="st3" x1="54.8" y1="28.4" x2="44" y2="28.8"/>
<line class="st3" x1="56.8" y1="38.1" x2="43.3" y2="38.7"/>
<line class="st3" x1="52.7" y1="18.1" x2="44.7" y2="18.5"/>
<path class="st4" d="M41.8,11.6c-1.4,3.2-2.5,6.5-3.3,9.9c-0.6,2.2-0.9,4.4-1,6.6c0,2.6,0.2,5.1,0.8,7.6c-0.2-1,0.2,2.9,3.1,9.9
	c1.7,4.2,4.4,10.3,8.3,17.8l-25.1,2.9c0.1-1.1,0.2-2.6,0.4-4.5c0.6-4.7,1.6-9.4,2.9-14c1.6-6.1,3.1-10.4,4.9-15.9s2-6.1,2.9-8.3
	C37.4,19.4,39.4,15.4,41.8,11.6z"/>
</svg>
