<svg xmlns="http://www.w3.org/2000/svg" viewBox="0 0 2250.82 1500.64"><defs><style>.cls-1{fill:#333;stroke:#000;stroke-width:0.64px;}.cls-1,.cls-4{stroke-miterlimit:10;}.cls-2{fill:#212121;}.cls-3{fill:#1a1a1a;}.cls-4{fill:none;stroke:#999;stroke-width:1.6px;}</style></defs><title>desktop</title><g id="Layer_2" data-name="Layer 2"><g id="Layer_1-2" data-name="Layer 1"><rect class="cls-1" x="0.5" y="0.32" width="2250" height="1500" rx="20"/><path class="cls-2" d="M431.77,84.32H26.1a10,10,0,0,0,6.9-9.5v-18a9.74,9.74,0,0,1-.5-3.11V29.41A10.12,10.12,0,0,1,42.59,19.32H413.41A10.12,10.12,0,0,1,423.5,29.41V53.73a9.74,9.74,0,0,1-.5,3.11V72.63A12.23,12.23,0,0,0,431.77,84.32Z"/><rect class="cls-2" y="84.82" width="2250" height="78"/><rect class="cls-3" x="197" y="95.82" width="1828" height="56" rx="28"/><rect class="cls-4" x="2098.6" y="37.42" width="28.8" height="28.8"/><line class="cls-4" x1="2172.2" y1="37.42" x2="2201" y2="66.22"/><line class="cls-4" x1="2172.2" y1="66.22" x2="2201" y2="37.42"/><line class="cls-4" x1="2025" y1="51.82" x2="2053.8" y2="51.82"/></g></g></svg>