<svg xmlns="http://www.w3.org/2000/svg" viewBox="0 0 2250.5 1500"><defs><style>.cls-1{fill:#333;}.cls-2{fill:#212121;}.cls-3{fill:#1a1a1a;}.cls-4{fill:none;stroke:#999;stroke-miterlimit:10;stroke-width:1.6px;}</style></defs><title>desktopDark</title><g id="Layer_2" data-name="Layer 2"><g id="Layer_1-2" data-name="Layer 1"><rect class="cls-1" x="0.5" width="2250" height="1500" rx="20"/><path class="cls-2" d="M2250,84.5v78H0v-78H27.32a10,10,0,0,0,5.68-9v-18a9.74,9.74,0,0,1-.5-3.11V30.09A10.12,10.12,0,0,1,42.59,20H413.41A10.12,10.12,0,0,1,423.5,30.09V54.41a9.74,9.74,0,0,1-.5,3.11V73.31a12.2,12.2,0,0,0,7.4,11.19Z"/><rect class="cls-3" x="197" y="95.5" width="1828" height="56" rx="28"/><rect class="cls-4" x="2098.6" y="37.1" width="28.8" height="28.8"/><line class="cls-4" x1="2172.2" y1="37.1" x2="2201" y2="65.9"/><line class="cls-4" x1="2172.2" y1="65.9" x2="2201" y2="37.1"/><line class="cls-4" x1="2025" y1="51.5" x2="2053.8" y2="51.5"/></g></g></svg>