<svg xmlns="http://www.w3.org/2000/svg" xmlns:xlink="http://www.w3.org/1999/xlink" viewBox="0 0 157.7 202.62"><defs><style>.cls-1{fill:none;}.cls-1,.cls-4,.cls-5{stroke:#000;stroke-miterlimit:10;}.cls-2{opacity:0.9;}.cls-3{clip-path:url(#clip-path);}.cls-4{fill:#4c8404;}.cls-5{fill:#599109;}</style><clipPath id="clip-path"><polygon class="cls-1" points="111.07 1.45 46.38 1.45 0.64 60.03 0.64 142.87 46.38 201.45 111.07 201.45 156.82 142.87 156.82 60.03 111.07 1.45"/></clipPath></defs><title>greenCrystal_1</title><g id="Layer_2" data-name="Layer 2"><g id="Layer_1-2" data-name="Layer 1"><g class="cls-2"><g class="cls-3"><polygon class="cls-4" points="111.07 1.45 46.38 1.45 0.64 60.03 0.64 142.87 46.38 201.45 111.07 201.45 156.82 142.87 156.82 60.03 111.07 1.45"/><line class="cls-1" x1="111.2" y1="1.05" x2="46.51" y2="1.05"/><polyline class="cls-1" points="156.94 59.78 111.2 1.04 103.19 23.63"/><polyline class="cls-1" points="156.94 142.84 156.94 59.78 137.06 69.59"/><polyline class="cls-1" points="111.2 201.57 156.94 142.84 137.06 132.5"/><polyline class="cls-1" points="46.51 201.57 111.2 201.57 103.19 179.27"/><polyline class="cls-1" points="0.77 142.84 46.51 201.57 53.99 179.27"/><polyline class="cls-1" points="0.77 59.78 0.77 142.84 20.12 132.5"/><polygon class="cls-1" points="53.99 23.63 20.12 69.59 0.77 59.78 46.51 1.04 53.99 23.63"/><polygon class="cls-5" points="20.32 132.87 20.32 69.75 54.27 23.5 103.44 23.5 137.39 69.75 137.39 132.87 103.44 179.12 54.27 179.12 20.32 132.87"/></g><polygon class="cls-1" points="111.07 1.45 46.38 1.45 0.64 60.03 0.64 142.87 46.38 201.45 111.07 201.45 156.82 142.87 156.82 60.03 111.07 1.45"/></g></g></g></svg>