<svg xmlns="http://www.w3.org/2000/svg" viewBox="0 0 32 32"><defs><style>.cls-1{fill:#252778;}.cls-2{fill:none;}</style></defs><title>pawPrint</title><g id="Layer_2" data-name="Layer 2"><g id="Layer_1-2" data-name="Layer 1"><path class="cls-1" d="M4.4,10.12c-.9-.63-1-.7-1.25-.75a1.92,1.92,0,0,0-1.3.2,2.51,2.51,0,0,0-.94,1.18,6,6,0,0,0-.75,1.8A4.92,4.92,0,0,0,.16,15a5,5,0,0,0,1.57,2.4,3.39,3.39,0,0,0,1.06.71,2.94,2.94,0,0,0,1.5.11,3.93,3.93,0,0,0,1.76-.86A18.94,18.94,0,0,0,7.63,15.9a3.47,3.47,0,0,0,.78-1,2.11,2.11,0,0,0,.24-.94,2.33,2.33,0,0,0-.43-1.26,3.69,3.69,0,0,0-1.34-1.22c-.52-.28-.57-.16-1.2-.49A13.75,13.75,0,0,1,4.4,10.12Z"/><path class="cls-1" d="M10.87,2.47a2.43,2.43,0,0,0-1.38.71,3.9,3.9,0,0,0-1.1,2.55c0,.21-.22,2.44.83,3.19a2.49,2.49,0,0,1,.78.74,6.13,6.13,0,0,1,.32.71,2.36,2.36,0,0,0,.82,1.1,1.94,1.94,0,0,0,2.4-.47c.42-.56.1-1,.51-2.16.12-.34.15-.32.27-.71a5.44,5.44,0,0,0,.32-1.45,4,4,0,0,0-.75-2.36A4.05,4.05,0,0,0,12.56,3,2.64,2.64,0,0,0,10.87,2.47Z"/><path class="cls-1" d="M15.62,15.4A4.09,4.09,0,0,0,13,16c-.59.44-.6.79-1.41,1.77A12.2,12.2,0,0,1,10,19.34a10.07,10.07,0,0,0-3,2,5.38,5.38,0,0,0-1.73,2.48,5,5,0,0,0,.9,4A6.07,6.07,0,0,0,10.48,30a8.5,8.5,0,0,0,2.55,0,3.64,3.64,0,0,0,1.77-.51c.2-.17.41-.41.71-.39s.44.23.62.39a3.26,3.26,0,0,0,1.65.55A8.11,8.11,0,0,0,21,29.83a6.47,6.47,0,0,0,2.82-1.26,4.66,4.66,0,0,0,1.85-2.75,4.25,4.25,0,0,0-.2-2.28,4.49,4.49,0,0,0-1.33-1.88,14.73,14.73,0,0,0-1.81-1.18,9.61,9.61,0,0,1-1.65-1.26c-.49-.52-.44-.67-1.14-1.54a6.91,6.91,0,0,0-1.22-1.33A4.85,4.85,0,0,0,15.62,15.4Z"/><path class="cls-1" d="M26.6,10.12c.9-.63,1-.7,1.25-.75a1.92,1.92,0,0,1,1.3.2,2.51,2.51,0,0,1,.94,1.18,6,6,0,0,1,.75,1.8,4.92,4.92,0,0,1,0,2.48,5,5,0,0,1-1.57,2.4,3.39,3.39,0,0,1-1.06.71,2.94,2.94,0,0,1-1.5.11A3.93,3.93,0,0,1,25,17.39a18.94,18.94,0,0,1-1.58-1.49,3.47,3.47,0,0,1-.78-1,2.11,2.11,0,0,1-.24-.94,2.33,2.33,0,0,1,.43-1.26,3.69,3.69,0,0,1,1.34-1.22c.52-.28.57-.16,1.2-.49A13.75,13.75,0,0,0,26.6,10.12Z"/><path class="cls-1" d="M20.13,2.47a2.43,2.43,0,0,1,1.38.71,3.9,3.9,0,0,1,1.1,2.55c0,.21.22,2.44-.83,3.19a2.49,2.49,0,0,0-.78.74,6.13,6.13,0,0,0-.32.71,2.36,2.36,0,0,1-.82,1.1,1.94,1.94,0,0,1-2.4-.47c-.42-.56-.1-1-.51-2.16-.12-.34-.15-.32-.27-.71a5.44,5.44,0,0,1-.32-1.45,4,4,0,0,1,.75-2.36A4.05,4.05,0,0,1,18.44,3,2.64,2.64,0,0,1,20.13,2.47Z"/><rect class="cls-2" width="32" height="32"/></g></g></svg>