<svg xmlns="http://www.w3.org/2000/svg" viewBox="0 0 1094.54 2281.68"><defs><style>.cls-1,.cls-2{fill:#ccc;stroke:#b3b3b3;}.cls-1,.cls-2,.cls-3,.cls-4,.cls-5{stroke-miterlimit:10;}.cls-1,.cls-3{stroke-width:0.54px;}.cls-2{stroke-width:0.55px;}.cls-3{fill:#e6e6e6;stroke:#ccc;}.cls-4{fill:#b3b3b3;stroke:#999;stroke-width:0.57px;}.cls-5{fill:#4d4d4d;stroke:#666;stroke-width:0.5px;}</style></defs><title>phoneBackLight</title><g id="Layer_2" data-name="Layer 2"><g id="Layer_1-2" data-name="Layer 1"><rect class="cls-1" x="0.27" y="517.41" width="24" height="140" rx="10"/><rect class="cls-1" x="0.27" y="327.41" width="24" height="140" rx="10"/><rect class="cls-2" x="1070.27" y="397.41" width="24" height="190" rx="10"/><rect class="cls-3" x="12.4" y="0.27" width="1070" height="2281.13" rx="79.38"/><rect class="cls-4" x="435.27" y="54.06" width="224" height="32" rx="15.1"/><circle class="cls-5" cx="447.77" cy="62.06" r="4"/><circle class="cls-5" cx="443.77" cy="70.06" r="4"/><circle class="cls-5" cx="447.77" cy="78.06" r="4"/><circle class="cls-5" cx="452.77" cy="70.06" r="4"/><circle class="cls-5" cx="456.77" cy="78.06" r="4"/><circle class="cls-5" cx="456.77" cy="62.06" r="4"/><circle class="cls-5" cx="461.77" cy="70.06" r="4"/><circle class="cls-5" cx="465.77" cy="78.06" r="4"/><circle class="cls-5" cx="465.77" cy="62.06" r="4"/><circle class="cls-5" cx="474.77" cy="62.06" r="4"/><circle class="cls-5" cx="470.77" cy="70.06" r="4"/><circle class="cls-5" cx="474.77" cy="78.06" r="4"/><circle class="cls-5" cx="479.77" cy="70.06" r="4"/><circle class="cls-5" cx="483.77" cy="78.06" r="4"/><circle class="cls-5" cx="483.77" cy="62.06" r="4"/><circle class="cls-5" cx="488.77" cy="70.06" r="4"/><circle class="cls-5" cx="492.77" cy="78.06" r="4"/><circle class="cls-5" cx="492.77" cy="62.06" r="4"/><circle class="cls-5" cx="501.77" cy="62.06" r="4"/><circle class="cls-5" cx="497.77" cy="70.06" r="4"/><circle class="cls-5" cx="501.77" cy="78.06" r="4"/><circle class="cls-5" cx="506.77" cy="70.06" r="4"/><circle class="cls-5" cx="510.77" cy="78.06" r="4"/><circle class="cls-5" cx="510.77" cy="62.06" r="4"/><circle class="cls-5" cx="515.77" cy="70.06" r="4"/><circle class="cls-5" cx="519.77" cy="78.06" r="4"/><circle class="cls-5" cx="519.77" cy="62.06" r="4"/><circle class="cls-5" cx="528.77" cy="62.06" r="4"/><circle class="cls-5" cx="524.77" cy="70.06" r="4"/><circle class="cls-5" cx="528.77" cy="78.06" r="4"/><circle class="cls-5" cx="533.77" cy="70.06" r="4"/><circle class="cls-5" cx="537.77" cy="78.06" r="4"/><circle class="cls-5" cx="537.77" cy="62.06" r="4"/><circle class="cls-5" cx="542.77" cy="70.06" r="4"/><circle class="cls-5" cx="546.77" cy="78.06" r="4"/><circle class="cls-5" cx="546.77" cy="62.06" r="4"/><circle class="cls-5" cx="555.77" cy="62.06" r="4"/><circle class="cls-5" cx="551.77" cy="70.06" r="4"/><circle class="cls-5" cx="555.77" cy="78.06" r="4"/><circle class="cls-5" cx="560.77" cy="70.06" r="4"/><circle class="cls-5" cx="564.77" cy="78.06" r="4"/><circle class="cls-5" cx="564.77" cy="62.06" r="4"/><circle class="cls-5" cx="569.77" cy="70.06" r="4"/><circle class="cls-5" cx="573.77" cy="78.06" r="4"/><circle class="cls-5" cx="573.77" cy="62.06" r="4"/><circle class="cls-5" cx="582.77" cy="62.06" r="4"/><circle class="cls-5" cx="578.77" cy="70.06" r="4"/><circle class="cls-5" cx="582.77" cy="78.06" r="4"/><circle class="cls-5" cx="587.77" cy="70.06" r="4"/><circle class="cls-5" cx="591.77" cy="78.06" r="4"/><circle class="cls-5" cx="591.77" cy="62.06" r="4"/><circle class="cls-5" cx="596.77" cy="70.06" r="4"/><circle class="cls-5" cx="600.77" cy="78.06" r="4"/><circle class="cls-5" cx="600.77" cy="62.06" r="4"/><circle class="cls-5" cx="609.77" cy="62.06" r="4"/><circle class="cls-5" cx="605.77" cy="70.06" r="4"/><circle class="cls-5" cx="609.77" cy="78.06" r="4"/><circle class="cls-5" cx="614.77" cy="70.06" r="4"/><circle class="cls-5" cx="618.77" cy="78.06" r="4"/><circle class="cls-5" cx="618.77" cy="62.06" r="4"/><circle class="cls-5" cx="623.77" cy="70.06" r="4"/><circle class="cls-5" cx="627.77" cy="78.06" r="4"/><circle class="cls-5" cx="627.77" cy="62.06" r="4"/><circle class="cls-5" cx="636.77" cy="62.06" r="4"/><circle class="cls-5" cx="632.77" cy="70.06" r="4"/><circle class="cls-5" cx="636.77" cy="78.06" r="4"/><circle class="cls-5" cx="641.77" cy="70.06" r="4"/><circle class="cls-5" cx="645.77" cy="78.06" r="4"/><circle class="cls-5" cx="645.77" cy="62.06" r="4"/><circle class="cls-5" cx="650.77" cy="70.06" r="4"/><circle class="cls-5" cx="697.9" cy="69.91" r="24.5"/></g></g></svg>