<svg xmlns="http://www.w3.org/2000/svg" viewBox="0 0 30.09 31"><title>sawblade</title><g id="Layer_2" data-name="Layer 2"><g id="Layer_1-2" data-name="Layer 1"><path d="M30.09,14.59,26.47,10.9,29.18,10l-4.77-2.5,1.12-2.06L21.41,5l.47-2.23-4.12.72L18.24.91,13.83,3.15,13.68,0,10,4.07,8.21,1.82,6.62,6.13,4.56,4.56l-.5,4.57L1.82,7.29l.73,5.49L0,11.85l2.24,4.87L0,17.32l3.16,3.24L.91,21l4.31,3L3.65,25.53l4.57,1L6.38,28.26,11.87,28l-.93,2.09,4.87-1.78.6,2.69,3.23-3.61.42,2.7,3-4.77,1.61,2,.95-5,1.78,1.39-.26-5,2.09.48L27.4,14.74Zm-15.27,4a2.9,2.9,0,1,1,2.9-2.9A2.9,2.9,0,0,1,14.82,18.63Z"/></g></g></svg>