<svg xmlns="http://www.w3.org/2000/svg" viewBox="0 0 28.69 26.37"><defs><style>.cls-1{fill:#231f20;}.cls-1,.cls-2,.cls-3{stroke:#231f20;stroke-miterlimit:10;stroke-width:0.51px;}.cls-2{fill:#4a5928;}.cls-3{fill:#4a494a;}</style></defs><title>train</title><g id="Layer_2" data-name="Layer 2"><g id="Layer_1-2" data-name="Layer 1"><rect class="cls-1" x="17.03" y="0.26" width="6.67" height="3.03"/><polygon class="cls-1" points="28.33 22.14 2.24 22.14 2.24 15.28 25.87 15.28 28.33 22.14"/><path class="cls-2" d="M26.07,11.11a3.94,3.94,0,0,1-3.68,4.17H12.77V6.92h9.62A4,4,0,0,1,26.07,11.11Z"/><rect class="cls-3" x="18.61" y="3.3" width="3.78" height="3.63"/><circle class="cls-3" cx="7.62" cy="22.03" r="4.08"/><circle class="cls-3" cx="20.5" cy="22.03" r="4.08"/><path class="cls-3" d="M2.24,3.15V15.28H12.76V3.15ZM10,9.4H5V5.66H10Z"/><polygon class="cls-2" points="14.78 0.26 0.33 0.26 1.05 3.15 14.05 3.15 14.78 0.26"/></g></g></svg>