<svg id="Layer_1" data-name="Layer 1" xmlns="http://www.w3.org/2000/svg" xmlns:xlink="http://www.w3.org/1999/xlink" viewBox="0 0 492.87 712.81"><defs><style>.cls-1,.cls-12,.cls-6{fill:none;}.cls-2{fill:#edb5a2;}.cls-3{fill:#553d3b;}.cls-13,.cls-4{fill:#352623;}.cls-5{clip-path:url(#clip-path);}.cls-6{stroke:#553d3b;stroke-width:2.93px;}.cls-12,.cls-13,.cls-6{stroke-miterlimit:10;}.cls-7{fill:#eee0d5;}.cls-8{clip-path:url(#clip-path-2);}.cls-9{fill:#3f2d29;}.cls-10{fill:#1a1a1a;}.cls-11{clip-path:url(#clip-path-3);}.cls-12{stroke:#edb5a2;stroke-width:0.2px;}.cls-13{stroke:#352623;stroke-width:1.95px;}.cls-14{fill:#1a218b;}</style><clipPath id="clip-path"><path id="SVGID" class="cls-1" d="M395.83,91.21c1.88-8.64,5.26-30.08-6.25-50-1.93-3.35-10.46-17.33-33-27.73-45.77-21.13-137-21.86-217.36,30.27a283.41,283.41,0,0,0-70.49,65.61,276.6,276.6,0,0,0-30.86,51.75l28.71,25.2Z"/></clipPath><clipPath id="clip-path-2"><path id="SVGID-2" data-name="SVGID" class="cls-1" d="M289.21,347.42c-.26-1.34,8.08-8,19.9-17.29,9.24-7.26,13.85-10.89,19.9-13.61,2.56-1.16,13.64-5.9,26.7-4.71,22.44,2,44.58,21,41.9,31.94-1.63,6.65-12.18,9.49-23.57,12.57-14.24,3.84-26.17,2.91-35.61,2.09-4.81-.41-2.47-.56-27.75-5.23C305.56,352.23,289.46,348.72,289.21,347.42Z"/></clipPath><clipPath id="clip-path-3"><path id="SVGID-3" data-name="SVGID" class="cls-1" d="M203.67,347.42c.25-1.34-8.08-8-19.9-17.29-9.24-7.26-13.86-10.89-19.9-13.61-2.57-1.16-13.64-5.9-26.71-4.71-22.43,2-44.58,21-41.89,31.94,1.63,6.65,12.17,9.49,23.56,12.57,14.25,3.84,26.17,2.91,35.61,2.09,4.81-.41,2.48-.56,27.76-5.23C187.32,352.23,203.41,348.72,203.67,347.42Z"/></clipPath></defs><title>Artboard 2</title><path class="cls-2" d="M59.46,323.16l-33.79-18L0,317.54q6.78,52.84,13.55,105.68l30.93,15.49Z"/><path class="cls-2" d="M433.42,323.16l33.78-18,25.67,12.34q-6.76,52.84-13.55,105.68l-30.93,15.49Z"/><polygon class="cls-2" points="246.52 103.41 124.42 74.3 68.69 109.27 37.85 161.02 42.77 431.88 29.82 531.28 89.51 665.15 182.66 712.8 310.21 712.8 403.37 665.15 463.05 531.28 450.1 431.88 455.02 161.02 424.18 109.27 368.45 74.3 246.52 103.41"/><path class="cls-3" d="M42.05,380c0-1.58-.06-3.15-.08-4.73L38,161.12l30.86-51.75,55.85-34.95,32.81,8-35.35,73.63L66.66,186.32q-7.23,97.25-14.45,194.5Z"/><path class="cls-3" d="M451.18,379.84l.09-4.72q2-107.1,4-214.19l-30.86-51.75-55.85-35-32.81,8,35.35,73.62,55.46,30.27q7.23,97.25,14.45,194.5Z"/><path class="cls-4" d="M286.39,473.39l94.13,29.09,60.42-121.86,10.16-.78q-.5,26-1,52,6.45,49.69,12.89,99.4-29.79,67-59.56,134l-93.16,47.65H182.58L89.43,665.16q-29.79-67-59.57-134,6.49-49.7,13-99.4-.48-26-1-52l10.15.78,60.35,121.86,94.12-29.09,39.84,10.15Z"/><path class="cls-2" d="M246.15,500.73,159.08,531l12.54,73,47.23-.93V561.23h55.34V602l47.22-.93Q327.68,566,334,531Z"/><path class="cls-4" d="M395.83,91.21c1.88-8.64,5.26-30.08-6.25-50-1.93-3.35-10.46-17.33-33-27.73-45.77-21.13-137-21.86-217.36,30.27a283.41,283.41,0,0,0-70.49,65.61,276.6,276.6,0,0,0-30.86,51.75l28.71,25.2Z"/><g class="cls-5"><path class="cls-6" d="M382.55,95.12c1.44-8.23,2.68-22.8-3.71-38.28-7.5-18.17-21.52-27.91-34.17-36.71C336.93,14.75,327.75,9.49,306.39,1A544.36,544.36,0,0,0,241-20.3"/><path class="cls-6" d="M205,150.77c1.43-8.23,2.67-22.8-3.71-38.27-7.5-18.18-21.52-27.92-34.18-36.72-7.73-5.37-16.91-10.64-38.28-19.13A543.16,543.16,0,0,0,63.45,35.36"/><path class="cls-6" d="M359.51,106.64c1.44-8.23,2.67-22.8-3.71-38.28-7.5-18.17-21.52-27.91-34.18-36.71-7.73-5.38-16.91-10.64-38.27-19.14A544.24,544.24,0,0,0,217.92-8.77"/><path class="cls-6" d="M138.25,176c1.44-8.24,2.67-22.8-3.71-38.28C127,119.52,113,109.77,100.36,101,92.63,95.6,83.45,90.34,62.09,81.84A544.36,544.36,0,0,0-3.33,60.55"/><path class="cls-6" d="M327.48,115.43c1.44-8.23,2.68-22.8-3.71-38.28-7.5-18.17-21.52-27.92-34.18-36.71-7.73-5.38-16.91-10.64-38.27-19.14A544.36,544.36,0,0,0,185.9,0"/><path class="cls-6" d="M295.84,126.75c1.44-8.23,2.68-22.8-3.71-38.27C284.63,70.3,270.62,60.56,258,51.76c-7.74-5.37-16.91-10.64-38.28-19.13a543.16,543.16,0,0,0-65.42-21.29"/><path class="cls-6" d="M171.45,164.44c1.44-8.23,2.67-22.8-3.71-38.27-7.5-18.18-21.52-27.92-34.18-36.72-7.73-5.37-16.91-10.64-38.27-19.13A544,544,0,0,0,29.86,49"/><path class="cls-6" d="M108.17,189.64c1.44-8.24,2.68-22.8-3.71-38.28C97,133.19,83,123.44,70.29,114.65,62.55,109.27,53.38,104,32,95.51A543.16,543.16,0,0,0-33.41,74.22"/><path class="cls-6" d="M265.77,131.83c1.44-8.23,2.68-22.8-3.71-38.28-7.5-18.17-21.52-27.91-34.18-36.71C220.15,51.46,211,46.2,189.61,37.7a544.6,544.6,0,0,0-65.42-21.28"/><path class="cls-6" d="M239.21,144.13c1.44-8.23,2.68-22.8-3.71-38.27C228,87.68,214,77.94,201.33,69.14,193.59,63.77,184.42,58.5,163.05,50A543.76,543.76,0,0,0,97.63,28.72"/><path class="cls-6" d="M77.91,201.74c1.43-8.23,2.67-22.8-3.72-38.27C66.7,145.29,52.68,135.55,40,126.75c-7.74-5.37-16.91-10.64-38.28-19.13A543.16,543.16,0,0,0-63.68,86.33"/></g><path class="cls-7" d="M294.67,347c-.26-1.34,3.91-7,14.44-16.91,8.57-8,13.85-10.89,19.9-13.61,2.56-1.16,13.64-5.9,26.7-4.71,22.44,2,44.58,21,41.9,31.94-1.63,6.65-12.18,9.49-23.57,12.57-14.24,3.84-26.17,2.91-35.61,2.09-4.81-.41,6.71,1.12-18.57-3.56C314.74,353.9,294.92,348.34,294.67,347Z"/><g class="cls-8"><ellipse class="cls-9" cx="349.94" cy="341.18" rx="22.46" ry="19.92"/><ellipse class="cls-10" cx="349.94" cy="341.18" rx="10.78" ry="9.56"/></g><path class="cls-7" d="M198.2,347c.26-1.34-3.9-7-14.43-16.91-8.58-8-13.86-10.89-19.9-13.61-2.57-1.16-13.64-5.9-26.71-4.71-22.43,2-44.58,21-41.89,31.94,1.63,6.65,12.17,9.49,23.56,12.57,14.25,3.84,26.17,2.91,35.61,2.09,4.81-.41-6.71,1.12,18.57-3.56C178.13,353.9,198,348.34,198.2,347Z"/><g class="cls-11"><ellipse class="cls-9" cx="142.94" cy="341.18" rx="22.46" ry="19.92"/><ellipse class="cls-10" cx="142.94" cy="341.18" rx="10.78" ry="9.56"/></g><path class="cls-12" d="M246.24,482.11l-52.53-13.39"/><path class="cls-12" d="M246.05,482.11l52.53-13.39"/><path class="cls-13" d="M75,299.25c-1.12-1.93,15.12-14.45,36.38-20.61A110.79,110.79,0,0,1,152,275.3a116.3,116.3,0,0,1,51.52,18,243,243,0,0,0-44.74-4.83,259.28,259.28,0,0,0-42.15,3.06c-12,1.73-20.7,3.5-20.7,3.5C80.82,298.06,75.6,300.27,75,299.25Z"/><path class="cls-13" d="M417.86,299.25c1.12-1.93-15.11-14.45-36.38-20.61a110.76,110.76,0,0,0-40.63-3.34,116.35,116.35,0,0,0-51.52,18,243,243,0,0,1,44.74-4.83,259.17,259.17,0,0,1,42.15,3.06c12,1.73,20.7,3.5,20.7,3.5C412.06,298.06,417.27,300.27,417.86,299.25Z"/><path class="cls-14" d="M421.48,278.07H282.15a23.91,23.91,0,0,0-23.06,30.2L280,384.77A23.91,23.91,0,0,0,303,402.37H403.38a28.68,28.68,0,0,0,28.21-23.47L445,306.32A23.91,23.91,0,0,0,421.48,278.07Zm8.72,33.63-11.27,61.06a24.13,24.13,0,0,1-23.73,19.75H310.78a20.12,20.12,0,0,1-19.4-14.81l-17.57-64.36a20.11,20.11,0,0,1,19.4-25.4H410.43A20.1,20.1,0,0,1,430.2,311.7Z"/><path class="cls-14" d="M211,278.07H71.68a23.9,23.9,0,0,0-23.5,28.25l13.4,72.58a28.68,28.68,0,0,0,28.2,23.47H190.12a23.9,23.9,0,0,0,23.06-17.6l20.89-76.5A23.91,23.91,0,0,0,211,278.07Zm8.35,35.27L201.78,377.7a20.1,20.1,0,0,1-19.4,14.81H98a24.13,24.13,0,0,1-23.73-19.75L63,311.7a20.11,20.11,0,0,1,19.78-23.76H200A20.11,20.11,0,0,1,219.36,313.34Z"/><path class="cls-14" d="M220,285.73h5.43a35.18,35.18,0,0,0,43.78,0h5.13l-4.61,30.16a35.27,35.27,0,0,0-44.83,0Q222.48,300.81,220,285.73Z"/><polygon class="cls-14" points="37.97 312.64 57.7 312.64 57.7 284.45 37.97 286.06 37.97 312.64"/><polygon class="cls-14" points="455.2 312.64 435.46 312.64 435.46 284.45 455.2 286.06 455.2 312.64"/></svg>