<?xml version="1.0" encoding="utf-8"?>
<!-- Generator: Adobe Illustrator 23.0.2, SVG Export Plug-In . SVG Version: 6.00 Build 0)  -->
<svg version="1.1" id="Layer_1" xmlns="http://www.w3.org/2000/svg" xmlns:xlink="http://www.w3.org/1999/xlink" x="0px" y="0px"
	 viewBox="0 0 32 32" style="enable-background:new 0 0 32 32;" xml:space="preserve">
<style type="text/css">
	.st0{fill:#252778;}
</style>
<title>pawPrint</title>
<g>
	<path class="st0" d="M5.2,10C4.4,9.4,4.3,9.3,4,9.3c-0.4-0.1-0.9,0-1.3,0.2C2.4,9.8,2,10.2,1.9,10.6c-0.3,0.5-0.6,1.1-0.7,1.7
		c-0.2,1.4-0.2,1.2,0,2.4c0.3,0.9,0.8,1.7,1.5,2.3c0.3,0.3,0.6,0.5,1,0.7c0.5,0.2,1,0.2,1.5,0.1c0.6-0.1,1.2-0.4,1.7-0.8
		c0.5-0.4,1-0.9,1.5-1.4c0.3-0.3,0.6-0.6,0.8-1c0.1-0.3,0.2-0.6,0.2-0.9c0-0.4-0.2-0.9-0.4-1.2c-0.3-0.5-0.8-0.9-1.3-1.2
		c-0.5-0.3-0.6-0.2-1.2-0.5C6.1,10.6,5.6,10.3,5.2,10z"/>
	<path class="st0" d="M11.5,2.6c-0.5,0.1-1,0.3-1.3,0.7C9.5,4,9.1,4.8,9.1,5.8c0,0.2-0.2,2.4,0.8,3.1c0.3,0.2,0.6,0.4,0.8,0.7
		c0.1,0.2,0.2,0.5,0.3,0.7c0.2,0.4,0.4,0.8,0.8,1.1c0.8,0.4,1.8,0.2,2.3-0.5c0.4-0.5,0.1-1,0.5-2.1c0.1-0.3,0.1-0.3,0.3-0.7
		c0.2-0.5,0.3-0.9,0.3-1.4c0-0.8-0.2-1.6-0.7-2.3c-0.3-0.5-0.8-1-1.3-1.3C12.7,2.8,12.1,2.6,11.5,2.6z"/>
	<path class="st0" d="M16.1,15.1c-0.9-0.1-1.8,0.1-2.5,0.6c-0.6,0.4-0.6,0.8-1.4,1.7c-0.5,0.6-1,1.1-1.5,1.5
		c-1.1,0.5-2.1,1.1-2.9,1.9c-0.8,0.6-1.4,1.5-1.7,2.4c-0.3,1.4,0,2.8,0.9,3.9c1,1.3,2.6,2,4.2,2.1c0.8,0.1,1.7,0.1,2.5,0
		c0.6,0,1.2-0.2,1.7-0.5c0.2-0.2,0.4-0.4,0.7-0.4c0.3,0,0.4,0.2,0.6,0.4c0.5,0.3,1,0.5,1.6,0.5c1,0.1,2.1,0.1,3.1-0.2
		c1-0.2,1.9-0.6,2.7-1.2c0.9-0.6,1.5-1.6,1.8-2.7c0.1-0.7,0.1-1.5-0.2-2.2c-0.3-0.7-0.7-1.3-1.3-1.8c-0.6-0.4-1.1-0.8-1.8-1.1
		c-0.6-0.3-1.1-0.8-1.6-1.2c-0.5-0.5-0.4-0.6-1.1-1.5c-0.3-0.5-0.7-0.9-1.2-1.3C18,15.5,17.1,15.2,16.1,15.1z"/>
	<path class="st0" d="M26.7,10c0.9-0.6,1-0.7,1.2-0.7c0.4-0.1,0.9,0,1.3,0.2c0.4,0.3,0.7,0.7,0.9,1.1c0.3,0.5,0.6,1.1,0.7,1.7
		c0.2,0.8,0.2,1.6,0,2.4c-0.3,0.9-0.8,1.7-1.5,2.3c-0.3,0.3-0.6,0.5-1,0.7c-0.5,0.2-1,0.2-1.5,0.1c-0.6-0.1-1.2-0.4-1.7-0.8
		c-0.5-0.5-1-0.9-1.5-1.4c-0.3-0.3-0.6-0.6-0.8-1c-0.1-0.3-0.2-0.6-0.2-0.9c0-0.4,0.2-0.9,0.4-1.2c0.3-0.5,0.8-0.9,1.3-1.2
		c0.5-0.3,0.6-0.2,1.2-0.5C26,10.6,26.4,10.3,26.7,10z"/>
	<path class="st0" d="M20.5,2.6c0.5,0.1,1,0.3,1.3,0.7c0.6,0.7,1,1.5,1.1,2.5c0,0.2,0.2,2.4-0.8,3.1c-0.3,0.2-0.6,0.4-0.8,0.7
		c-0.1,0.2-0.2,0.5-0.3,0.7c-0.2,0.4-0.4,0.8-0.8,1.1c-0.8,0.4-1.8,0.2-2.3-0.5c-0.4-0.5-0.1-1-0.5-2.1c-0.1-0.3-0.1-0.3-0.3-0.7
		c-0.2-0.5-0.3-0.9-0.3-1.4c0-0.8,0.2-1.6,0.7-2.3c0.3-0.5,0.8-1,1.3-1.3C19.3,2.8,19.9,2.6,20.5,2.6z"/>
</g>
</svg>
