<?xml version="1.0" encoding="utf-8"?>
<!-- Generator: Adobe Illustrator 21.1.0, SVG Export Plug-In . SVG Version: 6.00 Build 0)  -->
<!DOCTYPE svg PUBLIC "-//W3C//DTD SVG 1.1//EN" "http://www.w3.org/Graphics/SVG/1.1/DTD/svg11.dtd">
<svg version="1.1" id="Layer_1" xmlns="http://www.w3.org/2000/svg" xmlns:xlink="http://www.w3.org/1999/xlink" x="0px" y="0px"
	 viewBox="0 0 496.5 488.6" style="enable-background:new 0 0 496.5 488.6;" xml:space="preserve">
<style type="text/css">
	.st0{fill:#F98A10;}
</style>
<path class="st0" d="M1,1.8C4.4-2.4,17-2,87.3,34.7c49.9,26.1,74.9,39.1,94.5,55.1c24.7,20.2,50.6,41.7,66,79.5
	c3.9,9.6,22.4,44.5,11.9,54c-3.4,3.1-9.5,3.1-35.4-5.7C187.4,205,169.9,196,169.9,196c-40.3-20.8-60.4-31.3-83.7-51.6
	c-30.8-26.8-47.3-53-57.7-69.3C19.7,61.2,14.1,46,2.9,15.5C0.3,8.4-1,4.3,1,1.8z"/>
<path class="st0" d="M243.4,19.5c2.7-0.9,7.2,3.3,27.6,36.8c9.9,16.3,16.4,27.1,26.8,46.3c7.3,13.5,11.9,22,17.3,33.3
	c6.5,13.5,22.3,47,31.9,87.5c6.6,27.8,4.8,21.1,7,44.2c0.6,6,0.8,11.1-1.8,13c-4.1,3.1-14.3-5.9-20.9-11.8
	c-11.2-10.2-17.7-21.2-27.1-40.8c-10.6-22-17.4-39.2-18.6-42.5c-10.3-26.1-11.3-31.3-22.1-60.8C250.3,89,241,67.2,240.1,36.3
	C239.8,28.2,240.2,20.5,243.4,19.5z"/>
<path class="st0" d="M338.7,317.7c2.9-7.1-10.7-15.9-20.5-24.4c-15-12.9-27.2-20.3-49.6-31.7c-29.5-14.9-53.2-23-61.5-25.7
	c-15.1-5-26.2-7.6-48.4-12.9c-23.3-5.6-19.9-4-75.3-15.6c-17.6-3.7-35.5-5.6-52.9-10c-12.5-3.2-21.8-6.1-23.6-3.1
	c-2.6,4.4,12.7,18,17.7,22.5c14.2,12.7,27.6,20.4,38.9,26.4c23,12.2,41.8,19.5,53.7,24.2c40.9,16.3,61.3,24.5,68.8,27
	c30.1,10.1,50.2,14.2,90.4,22.4c9.4,1.9,24.5,3.5,44.3,3.3C328.4,320.2,337.1,321.6,338.7,317.7z"/>
<path class="st0" d="M442.4,331c1,11.3-3.6,15-7.1,14.6c-7.9-0.8-13.1-8.6-17.1-15.4c-6-10.4-6.5-9.2-11.1-18.6
	c-5.5-11.4-5.2-8.9-11.9-26.9c-12-32.4-13.4-45.6-13.4-45.6c-12.2-60.4-11.6-53.6-14.7-71.8c-8.9-52.5-8-38.1-10.5-57.1
	c-1-7.8-4.8-28-0.9-42.1c0.5-1.7,2.7-5.7,6-6.1c4-0.5,7.7,5.3,9.3,7.9c27.2,44,30.5,56.2,30.5,56.2
	C428.6,225.8,436.5,260.5,442.4,331z"/>
<path class="st0" d="M389.7,386c0.3-6.7-19.9-14.9-43.5-22.2c-60.1-18.6-100-27.8-163.1-33.6c-21.5-2-34.9-2.3-49.7-3.4
	c-12.9-0.9-20-1.5-21.3,1.6c-3.1,6.9,25.3,25.5,26.6,26.4c16.7,10.9,34.5,17.5,71.8,25.2c54.6,11.2,46.7,7.6,88.7,12.8
	c17.6,2.2,42.2,8.7,64.9,6.7C367.4,399.3,389.3,393.9,389.7,386z"/>
<path d="M496.3,459.9c-17-25.7-41.6-60-74.9-97.2c-32.7-36.6-73.4-75.5-76.1-72.9c-2.2,2.1,19.4,32.1,31.6,44.8
	c19.3,19.9,32.9,35.5,35.6,38.4c9.2,10,16.1,18.2,18,20.4c38.4,45,62.4,95.2,62.4,95.2S497.7,482.5,496.3,459.9z"/>
</svg>
